<!--?xml version="1.0" encoding="utf-8"?-->
<!-- Generator: Adobe Illustrator 18.1.1, SVG Export Plug-In . SVG Version: 6.00 Build 0)  -->

<svg version="1.1" id="_x31_0" xmlns="http://www.w3.org/2000/svg" xmlns:xlink="http://www.w3.org/1999/xlink" x="0px" y="0px" viewBox="0 0 512 512" style="width: 256px; height: 256px; opacity: 1;" xml:space="preserve">
<style type="text/css">
	.st0{fill:#374149;}
</style>
<g>
	<path class="st0" d="M497.562,179.152c-4.219-10.457-12.965-16.702-23.383-16.702c-8.629,0-17.378,4.374-23.422,11.695
		c-28.672,34.714-54.164,52.328-75.797,52.328c-21.512,0-38.054-17.297-52.649-32.566c-0.117-0.122-0.238-0.238-0.359-0.359
		l-0.039-0.039c-8.461-8.848-16.238-16.805-24.488-21.16c-1.031-0.57-2.066-1.098-3.114-1.555l25.414-17.328
		c2.226-1.434,5.05-1.633,7.438-0.637l31.695,21.157l0.715,0.394c2.226,1.074,3.777,3.062,4.293,5.449
		c0.515,2.426-0.078,4.89-1.629,6.762l-12.29,14.754l4.574,3.816l4.446,3.711l0.004,0.004l0,0l0.121,0.102l12.289-14.754
		c3.938-4.73,5.45-10.894,4.176-16.898c-1.274-5.886-5.05-10.777-10.379-13.48l-31.773-21.195l-0.715-0.398
		c-6.203-2.981-13.68-2.543-19.566,1.312l-39.485,26.922c-5.37,1.43-11.054,3.699-17.3,6.601l-1.512-1.152
		c-2.266-1.711-5.008-2.586-7.914-2.586c-4.371,0-8.629,2.148-11.332,5.766c-2.144,2.902-3.019,6.324-2.781,9.625
		c-4.059,2.027-8.391,4.172-13.004,6.442l-3.383-2.508c-2.305-1.707-5.046-2.582-7.953-2.582c-4.371,0-8.629,2.145-11.293,5.766
		c-2.426,3.262-3.262,7.238-2.626,10.895c-4.133,1.75-8.43,3.538-12.961,5.328l-3.621-2.664c-2.305-1.707-5.051-2.582-7.914-2.582
		c-4.414,0-8.668,2.145-11.332,5.766c-2.027,2.742-2.942,5.922-2.824,9.023c-4.969,1.711-10.141,3.462-15.547,5.172l-0.836-0.637
		c-2.304-1.71-5.05-2.586-7.914-2.586c-4.414,0-8.668,2.148-11.332,5.766c-0.914,1.234-1.59,2.547-2.066,3.938
		c-18.414,5.129-39.09,10.023-62.434,14.515c-13.879,2.664-25.45,6.242-34.477,10.578c-10.699,5.207-16.863,16.184-15.668,27.996
		c0.199,1.946,0.594,3.817,1.153,5.606l-0.078-0.039c-1.114,2.543-10.738,25.332-4.734,40.84
		c7.199,18.73,63.906,38.93,171.434,38.93h314.625c6.008,0,11.891-2.504,16.106-6.879c4.176-4.335,6.324-9.941,6.125-15.546v-35.156
		h-0.675C516.449,265.566,507.542,203.726,497.562,179.152z M18.222,306.961c2.426,1.551,5.168,2.742,8.114,3.5
		c28.671,7.394,74.957,16.145,132.5,16.145H494.34v22.984c0.078,2.028-0.997,3.5-1.668,4.176c-1.234,1.274-2.946,2.027-4.657,2.027
		H173.39c-110.195,0-153.34-21.074-156.602-28.71C14.922,322.191,16.195,314,18.222,306.961z M474.179,178.355
		c3.938,0,6.84,2.309,8.668,6.801c9.227,22.668,17.379,79.891,11.137,125.543H158.836c-25.473,0-48.641-1.75-68.95-4.367
		c-1.57-6.066-2.394-11.668-2.664-16.774l1.114,5.801c98.586-18.941,154.535-46.289,191.55-64.382
		c17.473-8.543,30.426-14.825,40.473-16.321c14.262,14.051,31.656,27.723,54.602,27.723c26.961,0,55.793-19.008,88.082-58.098
		C466.027,180.625,470.32,178.355,474.179,178.355z M79.66,259.121c-3.226,8.914-6.074,22.786-3.313,40.497
		c0.238,1.633,0.461,3.25,0.793,4.949c-18.664-2.863-34.434-6.316-46.828-9.496c-7.476-1.91-8.672-8.351-8.867-10.301
		c-0.398-4.054,1.153-9.344,6.797-12.086c7.754-3.738,18.016-6.879,30.5-9.266C65.941,262.027,72.941,260.594,79.66,259.121z
		 M313.66,207.93c-10.129,2.668-22.054,8.465-37.262,15.902c-34.715,16.965-86.313,42.141-174.586,60.68
		c-4.808,1.004-9.66,1.996-14.687,2.953c-0.023-1.027-0.02-2.019-0.004-3.008l0.942-10.648c1.57-9.238,4.625-15.402,6.094-17.946
		h0.019c10.059-2.347,19.524-4.812,28.512-7.278c0.039,0.039,0.039,0.039,0.078,0.078l17.258,12.844
		c2.309,1.711,5.05,2.625,7.914,2.625c4.414,0,8.671-2.187,11.335-5.766c4.61-6.203,3.5-14.914-2.507-19.367l-0.555-0.438
		l-0.144-0.176c3.242-1.07,6.406-2.175,9.488-3.242l12.926,9.621c2.305,1.711,5.051,2.625,7.91,2.625
		c4.414,0,8.672-2.187,11.336-5.766c4.234-5.687,3.617-13.453-1.133-18.164c-0.062-0.066-0.086-0.152-0.153-0.218
		c3.051-1.309,6.028-2.578,8.879-3.848l11.614,8.633c2.305,1.707,5.05,2.622,7.91,2.622c4.418,0,8.672-2.184,11.336-5.805
		c4.114-5.496,3.614-13.02-0.82-17.738c-0.39-0.446-0.786-0.89-1.242-1.293c2.887-1.422,5.656-2.809,8.305-4.153l12.965,9.625
		c2.305,1.707,5.051,2.626,7.914,2.626c4.414,0,8.629-2.188,11.332-5.809c4.613-6.164,3.5-14.871-2.504-19.324l-0.726-0.551
		L271.195,188c4.785-1.816,8.984-3.004,12.781-3.238h0.52c7.039,0,16.382,9.782,26.324,20.16c0.824,0.825,1.633,1.684,2.473,2.543
		L313.66,207.93z M153.546,254.074c-1.062,1.422-2.621,2.316-4.25,2.656c-0.086,0.02-0.164,0.047-0.246,0.058
		c-1.664,0.286-3.382-0.011-4.73-1.007l-13.004-9.661l-4.254-3.183c-2.863-2.106-3.301-6.282-1.074-9.344
		c1.351-1.789,3.457-2.863,5.606-2.863c1.312,0,2.586,0.398,3.621,1.191l12.406,9.227l4.89,3.617
		C155.336,246.875,155.812,251.051,153.546,254.074z M163.367,219c0.238-0.758,0.598-1.473,1.074-2.148
		c1.352-1.79,3.418-2.864,5.606-2.864c1.313,0,2.586,0.398,3.622,1.192l15.109,11.214l2.188,1.633
		c2.824,2.106,3.262,6.282,1.035,9.305c-1.059,1.422-2.622,2.32-4.254,2.66c-0.082,0.016-0.16,0.043-0.242,0.059
		c-1.661,0.285-3.383-0.016-4.731-1.012l-9.187-6.797l-8.11-6.047C163.25,224.566,162.492,221.621,163.367,219z M202.894,200.11
		c1.351-1.79,3.422-2.863,5.566-2.863c1.351,0,2.625,0.398,3.66,1.195l0.317,0.238l14.398,10.734l2.542,1.87
		c2.863,2.106,3.301,6.282,1.074,9.305c-1.058,1.422-2.617,2.317-4.25,2.661c-0.082,0.015-0.164,0.042-0.246,0.058
		c-1.66,0.285-3.383-0.016-4.73-1.008l-8.43-6.246l-8.867-6.602c-1.828-1.351-2.664-3.578-2.426-5.766
		C201.621,202.457,202.102,201.222,202.894,200.11z M240.515,184.84c0.195-0.516,0.477-0.996,0.832-1.473
		c1.356-1.789,3.422-2.863,5.566-2.863c0.598,0,1.195,0.082,1.75,0.238c0.679,0.199,1.355,0.519,1.91,0.957l12.887,9.582
		l4.371,3.262c2.863,2.106,3.301,6.281,1.035,9.305c-1.031,1.414-2.578,2.301-4.203,2.648c-0.102,0.02-0.195,0.051-0.297,0.07
		c-1.661,0.282-3.383-0.015-4.727-1.008l-10.058-7.476l-7.199-5.367C239.996,190.926,239.281,187.621,240.515,184.84z" style="fill: rgb(75, 75, 75);"></path>
</g>
</svg>
